<svg width="446" height="158" viewBox="0 0 446 158" fill="none" xmlns="http://www.w3.org/2000/svg">
<path d="M437.044 0.229248H8.95582C4.00966 0.229248 0 4.23892 0 9.18508V148.532C0 153.478 4.00963 157.488 8.9558 157.488H437.044C441.99 157.488 446 153.478 446 148.532V9.18507C446 4.23891 441.99 0.229248 437.044 0.229248Z" fill="#28BBC5"/>
<path d="M129.014 41.4378C128.848 41.1845 128.956 40.8517 129.253 40.7215C130.46 40.1862 131.804 39.8823 133.221 39.8823C138.44 39.8823 142.669 43.9626 142.669 48.9907C142.669 53.0276 138.44 56.3048 133.221 56.3048C128.002 56.3048 123.773 53.0276 123.773 48.9907C123.773 46.1041 126.209 44.3461 129.347 43.1524C129.6 43.0583 129.701 42.7906 129.563 42.5736L129.014 41.4305V41.4378Z" fill="white"/>
<path d="M64.377 52.5067C64.377 48.1877 67.7888 44.7729 72.1042 44.7729C76.4195 44.7729 79.8313 48.1877 79.8313 52.5067V101.622H108.434C112.345 101.622 115.46 104.741 115.46 108.654C115.46 112.568 112.352 115.686 108.434 115.686H72.1042C67.7888 115.686 64.377 112.272 64.377 107.953V52.5067Z" fill="white"/>
<path d="M125.595 68.8786C125.595 64.6608 129.006 61.2461 133.221 61.2461C137.435 61.2461 140.847 64.6608 140.847 68.8786V108.654C140.847 112.872 137.435 116.287 133.221 116.287C129.006 116.287 125.595 112.872 125.595 108.654V68.8786Z" fill="white"/>
<path d="M155.202 49.3886C155.202 45.1708 158.614 41.7561 162.828 41.7561C167.042 41.7561 170.454 45.1708 170.454 49.3886V69.5803C174.169 64.5595 179.287 60.841 187.217 60.841C199.758 60.841 211.707 70.6872 211.707 88.6652V88.8678C211.707 106.846 199.968 116.692 187.217 116.692C179.085 116.692 174.068 112.973 170.454 108.654V108.756C170.454 112.872 167.042 116.287 162.828 116.287C158.614 116.287 155.202 112.872 155.202 108.654V49.3958V49.3886ZM196.447 88.8605V88.658C196.447 79.716 190.426 73.7909 183.299 73.7909C176.172 73.7909 170.252 79.716 170.252 88.658V88.8605C170.252 97.8025 176.172 103.728 183.299 103.728C190.426 103.728 196.447 97.9038 196.447 88.8605Z" fill="white"/>
<path d="M222.946 68.8786C222.946 64.6608 226.358 61.2461 230.572 61.2461C234.786 61.2461 238.198 64.6608 238.198 68.8786V71.2877C240.403 66.0643 244.017 61.2461 248.535 61.2461C253.053 61.2461 255.958 64.357 255.958 68.676C255.958 72.6912 253.349 75.1076 250.241 75.8093C242.514 77.618 238.198 83.5431 238.198 94.395V108.654C238.198 112.872 234.786 116.287 230.572 116.287C226.358 116.287 222.946 112.872 222.946 108.654V68.8786Z" fill="white"/>
<path d="M259.182 100.212V100.009C259.182 88.2601 268.116 82.8342 280.86 82.8342C286.281 82.8342 290.192 83.7385 294.008 85.0407V84.1364C294.008 77.8061 290.098 74.2901 282.464 74.2901C278.25 74.2901 274.838 74.8906 271.925 75.7949C271.022 76.0988 270.422 76.2001 269.721 76.2001C266.208 76.2001 263.396 73.4871 263.396 69.9711C263.396 67.2581 265.102 64.9503 267.509 64.046C272.323 62.2373 277.542 61.2317 284.669 61.2317C292.996 61.2317 299.017 63.4455 302.834 67.2581C306.846 71.2733 308.653 77.1984 308.653 84.433V108.944C308.653 113.06 305.342 116.28 301.229 116.28C296.813 116.28 293.907 113.169 293.907 109.949V109.848C290.192 113.965 285.074 116.678 277.65 116.678C267.516 116.678 259.182 110.854 259.182 100.204V100.212ZM294.203 96.6957V93.9827C291.594 92.7745 288.182 91.9715 284.467 91.9715C277.947 91.9715 273.928 94.5832 273.928 99.4014V99.604C273.928 103.72 277.339 106.137 282.255 106.137C289.382 106.137 294.196 102.216 294.196 96.6957H294.203Z" fill="white"/>
<path d="M321.91 103.228L340.878 79.9258L323.016 58.128C321.809 56.6232 320.71 54.612 320.71 52.4055C320.71 48.0864 323.92 44.7729 328.336 44.7729C331.647 44.7729 333.555 46.0824 335.464 48.5928L350.817 69.0812L366.069 48.9907C368.179 46.2778 370.182 44.7729 373.593 44.7729C377.005 44.7729 380.619 47.4859 380.619 51.9063C380.619 54.1201 379.817 55.9215 378.314 57.8314L360.452 79.7305L379.318 102.932C380.525 104.437 381.624 106.448 381.624 108.654C381.624 112.973 378.415 116.287 373.998 116.287C370.688 116.287 368.779 114.977 366.871 112.467L350.412 90.8718L334.155 112.062C332.045 114.775 330.042 116.28 326.63 116.28C323.219 116.28 319.604 113.567 319.604 109.146C319.604 106.933 320.407 105.131 321.91 103.221V103.228Z" fill="white"/>
</svg>
