<svg width="838" height="203" viewBox="0 0 838 203" fill="none" xmlns="http://www.w3.org/2000/svg">
<path d="M170.729 4.10655C170.288 3.42672 170.582 2.56315 171.363 2.21405C174.551 0.790075 178.097 0 181.846 0C195.635 0 206.806 10.7671 206.806 24.0421C206.806 34.699 195.626 43.3438 181.846 43.3438C168.065 43.3438 156.885 34.699 156.885 24.0421C156.885 16.4262 163.325 11.7776 171.602 8.6357C172.264 8.38765 172.539 7.67107 172.181 7.11986L170.739 4.10655H170.729Z" fill="white"/>
<path d="M0 33.3118C0 21.9109 9.01236 12.9077 20.4133 12.9077C31.8143 12.9077 40.8266 21.9201 40.8266 33.321V162.93H116.361C126.697 162.93 134.919 171.152 134.919 181.488C134.919 191.823 126.706 200.045 116.361 200.045H20.4133C9.01236 200.045 0 191.033 0 179.632V33.3118Z" fill="white"/>
<path d="M161.698 76.518C161.698 65.3835 170.711 56.3711 181.845 56.3711C192.98 56.3711 201.992 65.3835 201.992 76.518V181.488C201.992 192.622 192.98 201.635 181.845 201.635C170.711 201.635 161.698 192.622 161.698 181.488V76.518Z" fill="white"/>
<path d="M239.897 25.0986C239.897 13.964 248.91 4.95166 260.044 4.95166C271.179 4.95166 280.191 13.964 280.191 25.0986V78.3826C290.003 65.1259 303.517 55.3235 324.454 55.3235C357.591 55.3235 389.13 81.3041 389.13 128.745V129.278C389.13 176.729 358.115 202.7 324.454 202.7C302.984 202.7 289.727 192.888 280.191 181.497V181.763C280.191 192.631 271.179 201.643 260.044 201.643C248.91 201.643 239.897 192.631 239.897 181.497V25.0986ZM348.836 129.269V128.736C348.836 105.144 332.933 89.508 314.109 89.508C295.285 89.508 279.649 105.144 279.649 128.736V129.269C279.649 152.861 295.285 168.497 314.109 168.497C332.933 168.497 348.836 153.118 348.836 129.269Z" fill="white"/>
<path d="M418.832 76.518C418.832 65.3835 427.844 56.3711 438.979 56.3711C450.113 56.3711 459.126 65.3835 459.126 76.518V82.8753C464.96 69.0858 474.496 56.3711 486.429 56.3711C498.363 56.3711 506.043 64.5842 506.043 75.9851C506.043 86.5868 499.153 92.9534 490.931 94.8091C470.518 99.5771 459.126 115.222 459.126 143.849V181.488C459.126 192.622 450.113 201.635 438.979 201.635C427.844 201.635 418.832 192.622 418.832 181.488V76.518Z" fill="white"/>
<path d="M514.521 159.219V158.686C514.521 127.671 538.113 113.358 571.774 113.358C586.088 113.358 596.423 115.746 606.501 119.191V116.812C606.501 100.11 596.166 90.8312 576.019 90.8312C564.884 90.8312 555.872 92.4205 548.192 94.8091C545.803 95.6084 544.214 95.8656 542.358 95.8656C533.079 95.8656 525.656 88.709 525.656 79.4302C525.656 72.2736 530.158 66.1735 536.524 63.7941C549.248 59.0261 563.028 56.3711 581.852 56.3711C603.855 56.3711 619.758 62.2048 629.826 72.2736C640.428 82.8753 645.196 98.5115 645.196 117.602V182.278C645.196 193.146 636.45 201.625 625.582 201.625C613.915 201.625 606.234 193.412 606.234 184.924V184.657C596.423 195.525 582.909 202.682 563.295 202.682C536.524 202.682 514.521 187.312 514.521 159.209V159.219ZM607.034 149.94V142.783C600.144 139.605 591.131 137.482 581.32 137.482C564.094 137.482 553.492 144.373 553.492 157.096V157.629C553.492 168.497 562.505 174.864 575.495 174.864C594.319 174.864 607.043 164.529 607.043 149.949L607.034 149.94Z" fill="white"/>
<path d="M680.208 167.174L730.304 105.677L683.12 48.1578C679.942 44.1799 677.02 38.879 677.02 33.0453C677.02 21.6444 685.5 12.8984 697.167 12.8984C705.913 12.8984 710.947 16.3435 715.991 22.9765L756.542 77.0506L796.836 24.0422C802.403 16.8856 807.704 12.9076 816.716 12.9076C825.729 12.9076 835.274 20.0642 835.274 31.7316C835.274 37.5653 833.152 42.3333 829.174 47.3677L781.99 105.153L831.82 166.384C834.998 170.362 837.92 175.663 837.92 181.497C837.92 192.898 829.44 201.644 817.773 201.644C809.027 201.644 803.992 198.198 798.949 191.566L755.476 134.579L712.537 190.509C706.969 197.666 701.669 201.644 692.656 201.644C683.644 201.644 674.099 194.487 674.099 182.82C674.099 176.986 676.221 172.218 680.199 167.183L680.208 167.174Z" fill="white"/>
</svg>
