<svg width="446" height="158" viewBox="0 0 446 158" fill="none" xmlns="http://www.w3.org/2000/svg">
<path d="M437.044 0.727051H8.95582C4.00966 0.727051 0 4.73672 0 9.68288V149.03C0 153.976 4.00963 157.985 8.9558 157.985H437.044C441.99 157.985 446 153.976 446 149.03V9.68287C446 4.73671 441.99 0.727051 437.044 0.727051Z" fill="black"/>
<path d="M129.019 41.9356C128.853 41.6823 128.961 41.3495 129.257 41.2193C130.465 40.684 131.809 40.3801 133.226 40.3801C138.445 40.3801 142.673 44.4604 142.673 49.4885C142.673 53.5254 138.445 56.8026 133.226 56.8026C128.007 56.8026 123.778 53.5254 123.778 49.4885C123.778 46.6019 126.214 44.8439 129.351 43.6502C129.604 43.5561 129.706 43.2884 129.568 43.0714L129.019 41.9283V41.9356Z" fill="white"/>
<path d="M64.375 53.0045C64.375 48.6855 67.7868 45.2708 72.1022 45.2708C76.4175 45.2708 79.8293 48.6855 79.8293 53.0045V102.12H108.432C112.343 102.12 115.458 105.238 115.458 109.152C115.458 113.066 112.35 116.184 108.432 116.184H72.1022C67.7868 116.184 64.375 112.77 64.375 108.45V53.0045Z" fill="white"/>
<path d="M125.601 69.3764C125.601 65.1586 129.012 61.7439 133.227 61.7439C137.441 61.7439 140.853 65.1586 140.853 69.3764V109.152C140.853 113.37 137.441 116.785 133.227 116.785C129.012 116.785 125.601 113.37 125.601 109.152V69.3764Z" fill="white"/>
<path d="M155.208 49.8864C155.208 45.6686 158.62 42.2539 162.834 42.2539C167.048 42.2539 170.46 45.6686 170.46 49.8864V70.0782C174.175 65.0573 179.293 61.3388 187.223 61.3388C199.764 61.3388 211.712 71.185 211.712 89.163V89.3656C211.712 107.344 199.974 117.19 187.223 117.19C179.091 117.19 174.074 113.471 170.46 109.152V109.253C170.46 113.37 167.048 116.785 162.834 116.785C158.62 116.785 155.208 113.37 155.208 109.152V49.8936V49.8864ZM196.453 89.3583V89.1558C196.453 80.2138 190.432 74.2887 183.305 74.2887C176.178 74.2887 170.258 80.2138 170.258 89.1558V89.3583C170.258 98.3003 176.178 104.225 183.305 104.225C190.432 104.225 196.453 98.4016 196.453 89.3583Z" fill="white"/>
<path d="M222.952 69.3764C222.952 65.1586 226.364 61.7439 230.578 61.7439C234.792 61.7439 238.204 65.1586 238.204 69.3764V71.7855C240.409 66.5621 244.023 61.7439 248.541 61.7439C253.058 61.7439 255.964 64.8548 255.964 69.1738C255.964 73.189 253.355 75.6054 250.247 76.3071C242.519 78.1158 238.204 84.0409 238.204 94.8928V109.152C238.204 113.37 234.792 116.785 230.578 116.785C226.364 116.785 222.952 113.37 222.952 109.152V69.3764Z" fill="white"/>
<path d="M259.18 100.709V100.507C259.18 88.7579 268.114 83.332 280.858 83.332C286.279 83.332 290.19 84.2363 294.006 85.5385V84.6342C294.006 78.3039 290.096 74.7879 282.462 74.7879C278.248 74.7879 274.836 75.3884 271.923 76.2927C271.02 76.5966 270.42 76.6979 269.719 76.6979C266.206 76.6979 263.394 73.9849 263.394 70.4689C263.394 67.7559 265.1 65.4481 267.507 64.5438C272.321 62.7351 277.54 61.7295 284.667 61.7295C292.994 61.7295 299.015 63.9433 302.832 67.7559C306.844 71.7711 308.651 77.6962 308.651 84.9308V109.442C308.651 113.558 305.34 116.778 301.227 116.778C296.811 116.778 293.905 113.667 293.905 110.447V110.346C290.19 114.462 285.072 117.175 277.648 117.175C267.514 117.175 259.18 111.352 259.18 100.702V100.709ZM294.201 97.1935V94.4805C291.592 93.2723 288.18 92.4693 284.465 92.4693C277.945 92.4693 273.926 95.081 273.926 99.8992V100.102C273.926 104.218 277.337 106.635 282.253 106.635C289.38 106.635 294.194 102.713 294.194 97.1935H294.201Z" fill="white"/>
<path d="M321.909 103.726L340.877 80.4236L323.015 58.6258C321.808 57.121 320.709 55.1098 320.709 52.9033C320.709 48.5842 323.919 45.2708 328.335 45.2708C331.646 45.2708 333.554 46.5802 335.463 49.0906L350.816 69.579L366.068 49.4885C368.178 46.7756 370.181 45.2708 373.592 45.2708C377.004 45.2708 380.618 47.9837 380.618 52.4041C380.618 54.6179 379.816 56.4193 378.313 58.3292L360.451 80.2283L379.317 103.43C380.525 104.934 381.623 106.946 381.623 109.152C381.623 113.471 378.414 116.785 373.997 116.785C370.687 116.785 368.778 115.475 366.87 112.965L350.411 91.3696L334.154 112.56C332.044 115.273 330.041 116.777 326.63 116.777C323.218 116.777 319.604 114.065 319.604 109.644C319.604 107.43 320.406 105.629 321.909 103.719V103.726Z" fill="white"/>
</svg>
