<svg width="446" height="158" viewBox="0 0 446 158" fill="none" xmlns="http://www.w3.org/2000/svg">
<path d="M437.044 0.478027H8.95582C4.00966 0.478027 0 4.48769 0 9.43386V148.781C0 153.727 4.00964 157.736 8.9558 157.736H437.044C441.99 157.736 446 153.727 446 148.781V9.43385C446 4.48769 441.99 0.478027 437.044 0.478027Z" fill="white"/>
<path d="M129.02 41.6865C128.854 41.4333 128.962 41.1005 129.258 40.9703C130.466 40.4349 131.81 40.1311 133.227 40.1311C138.446 40.1311 142.674 44.2114 142.674 49.2395C142.674 53.2764 138.446 56.5536 133.227 56.5536C128.008 56.5536 123.779 53.2764 123.779 49.2395C123.779 46.3529 126.215 44.5948 129.352 43.4011C129.605 43.3071 129.707 43.0394 129.569 42.8224L129.02 41.6793V41.6865Z" fill="black"/>
<path d="M64.376 52.7553C64.376 48.4362 67.7878 45.0215 72.1031 45.0215C76.4185 45.0215 79.8303 48.4362 79.8303 52.7553V101.871H108.433C112.344 101.871 115.459 104.989 115.459 108.903C115.459 112.817 112.351 115.935 108.433 115.935H72.1031C67.7878 115.935 64.376 112.52 64.376 108.201V52.7553Z" fill="black"/>
<path d="M125.601 69.1274C125.601 64.9096 129.012 61.4949 133.227 61.4949C137.441 61.4949 140.853 64.9096 140.853 69.1274V108.903C140.853 113.121 137.441 116.536 133.227 116.536C129.012 116.536 125.601 113.121 125.601 108.903V69.1274Z" fill="black"/>
<path d="M155.201 49.6374C155.201 45.4196 158.613 42.0049 162.827 42.0049C167.041 42.0049 170.453 45.4196 170.453 49.6374V69.8291C174.168 64.8083 179.286 61.0897 187.216 61.0897C199.757 61.0897 211.706 70.936 211.706 88.914V89.1166C211.706 107.095 199.967 116.941 187.216 116.941C179.084 116.941 174.067 113.222 170.453 108.903V109.004C170.453 113.121 167.041 116.536 162.827 116.536C158.613 116.536 155.201 113.121 155.201 108.903V49.6446V49.6374ZM196.446 89.1093V88.9067C196.446 79.9648 190.425 74.0397 183.298 74.0397C176.171 74.0397 170.251 79.9648 170.251 88.9067V89.1093C170.251 98.0513 176.171 103.976 183.298 103.976C190.425 103.976 196.446 98.1526 196.446 89.1093Z" fill="black"/>
<path d="M222.945 69.1274C222.945 64.9096 226.357 61.4949 230.571 61.4949C234.785 61.4949 238.197 64.9096 238.197 69.1274V71.5365C240.402 66.3131 244.016 61.4949 248.534 61.4949C253.052 61.4949 255.957 64.6057 255.957 68.9248C255.957 72.94 253.348 75.3563 250.24 76.0581C242.513 77.8667 238.197 83.7919 238.197 94.6438V108.903C238.197 113.121 234.785 116.536 230.571 116.536C226.357 116.536 222.945 113.121 222.945 108.903V69.1274Z" fill="black"/>
<path d="M259.181 100.46V100.258C259.181 88.5087 268.115 83.0827 280.859 83.0827C286.28 83.0827 290.191 83.987 294.007 85.2893V84.385C294.007 78.0547 290.097 74.5387 282.463 74.5387C278.249 74.5387 274.837 75.1391 271.924 76.0435C271.021 76.3473 270.421 76.4486 269.72 76.4486C266.207 76.4486 263.395 73.7356 263.395 70.2196C263.395 67.5067 265.101 65.1988 267.508 64.2945C272.322 62.4858 277.541 61.4802 284.668 61.4802C292.995 61.4802 299.016 63.694 302.833 67.5067C306.845 71.5219 308.652 77.447 308.652 84.6816V109.192C308.652 113.309 305.341 116.528 301.228 116.528C296.812 116.528 293.906 113.417 293.906 110.198V110.097C290.191 114.213 285.073 116.926 277.649 116.926C267.515 116.926 259.181 111.102 259.181 100.453V100.46ZM294.202 96.9442V94.2312C291.593 93.0231 288.181 92.22 284.466 92.22C277.946 92.22 273.927 94.8317 273.927 99.65V99.8525C273.927 103.969 277.338 106.385 282.254 106.385C289.381 106.385 294.195 102.464 294.195 96.9442H294.202Z" fill="black"/>
<path d="M321.909 103.477L340.877 80.1744L323.015 58.3766C321.808 56.8718 320.709 54.8605 320.709 52.654C320.709 48.3349 323.919 45.0215 328.335 45.0215C331.646 45.0215 333.554 46.3309 335.463 48.8413L350.816 69.3297L366.068 49.2393C368.178 46.5263 370.181 45.0215 373.593 45.0215C377.004 45.0215 380.619 47.7345 380.619 52.1548C380.619 54.3686 379.816 56.17 378.313 58.0799L360.451 79.979L379.317 103.18C380.525 104.685 381.623 106.696 381.623 108.903C381.623 113.222 378.414 116.535 373.997 116.535C370.687 116.535 368.778 115.226 366.87 112.716L350.411 91.1203L334.154 112.31C332.044 115.023 330.041 116.528 326.63 116.528C323.218 116.528 319.604 113.815 319.604 109.395C319.604 107.181 320.406 105.38 321.909 103.47V103.477Z" fill="black"/>
</svg>
