<svg width="446" height="159" viewBox="0 0 446 159" fill="none" xmlns="http://www.w3.org/2000/svg">
<path d="M437.044 0.980469H8.95582C4.00966 0.980469 0 4.99014 0 9.9363V149.283C0 154.229 4.00963 158.239 8.9558 158.239H437.044C441.99 158.239 446 154.229 446 149.283V9.93629C446 4.99013 441.99 0.980469 437.044 0.980469Z" fill="#28BBC5"/>
<path d="M129.013 42.1891C128.847 41.9359 128.955 41.6031 129.252 41.4729C130.459 40.9375 131.803 40.6337 133.22 40.6337C138.439 40.6337 142.668 44.714 142.668 49.742C142.668 53.7789 138.439 57.0562 133.22 57.0562C128.001 57.0562 123.772 53.7789 123.772 49.742C123.772 46.8554 126.208 45.0974 129.346 43.9037C129.599 43.8096 129.7 43.542 129.562 43.3249L129.013 42.1819V42.1891Z" fill="black"/>
<path d="M64.376 53.2582C64.376 48.9391 67.7877 45.5244 72.1031 45.5244C76.4185 45.5244 79.8302 48.9391 79.8302 53.2582V102.374H108.433C112.344 102.374 115.459 105.492 115.459 109.406C115.459 113.32 112.351 116.438 108.433 116.438H72.1031C67.7877 116.438 64.376 113.023 64.376 108.704V53.2582Z" fill="black"/>
<path d="M125.593 69.63C125.593 65.4123 129.005 61.9976 133.219 61.9976C137.433 61.9976 140.845 65.4123 140.845 69.63V109.406C140.845 113.624 137.433 117.038 133.219 117.038C129.005 117.038 125.593 113.624 125.593 109.406V69.63Z" fill="black"/>
<path d="M155.201 50.1401C155.201 45.9223 158.613 42.5076 162.827 42.5076C167.041 42.5076 170.453 45.9223 170.453 50.1401V70.3318C174.169 65.311 179.286 61.5924 187.216 61.5924C199.757 61.5924 211.706 71.4387 211.706 89.4167V89.6192C211.706 107.597 199.967 117.443 187.216 117.443C179.084 117.443 174.067 113.725 170.453 109.406V109.507C170.453 113.624 167.041 117.038 162.827 117.038C158.613 117.038 155.201 113.624 155.201 109.406V50.1473V50.1401ZM196.447 89.612V89.4094C196.447 80.4675 190.425 74.5424 183.298 74.5424C176.171 74.5424 170.251 80.4675 170.251 89.4094V89.612C170.251 98.554 176.171 104.479 183.298 104.479C190.425 104.479 196.447 98.6552 196.447 89.612Z" fill="black"/>
<path d="M222.945 69.63C222.945 65.4123 226.357 61.9976 230.571 61.9976C234.785 61.9976 238.197 65.4123 238.197 69.63V72.0392C240.402 66.8158 244.016 61.9976 248.534 61.9976C253.052 61.9976 255.958 65.1084 255.958 69.4275C255.958 73.4427 253.348 75.859 250.24 76.5608C242.513 78.3694 238.197 84.2946 238.197 95.1465V109.406C238.197 113.624 234.785 117.038 230.571 117.038C226.357 117.038 222.945 113.624 222.945 109.406V69.63Z" fill="black"/>
<path d="M259.182 100.963V100.76C259.182 89.0115 268.116 83.5855 280.86 83.5855C286.281 83.5855 290.191 84.4899 294.008 85.7921V84.8878C294.008 78.5575 290.098 75.0415 282.464 75.0415C278.25 75.0415 274.838 75.6419 271.925 76.5463C271.022 76.8501 270.422 76.9514 269.721 76.9514C266.208 76.9514 263.396 74.2384 263.396 70.7224C263.396 68.0095 265.102 65.7016 267.509 64.7973C272.323 62.9887 277.542 61.983 284.669 61.983C292.996 61.983 299.017 64.1968 302.834 68.0095C306.846 72.0247 308.653 77.9498 308.653 85.1844V109.695C308.653 113.812 305.342 117.031 301.229 117.031C296.813 117.031 293.907 113.92 293.907 110.701V110.6C290.192 114.716 285.074 117.429 277.65 117.429C267.516 117.429 259.182 111.605 259.182 100.956V100.963ZM294.203 97.447V94.7341C291.594 93.5259 288.182 92.7228 284.467 92.7228C277.947 92.7228 273.928 95.3345 273.928 100.153V100.355C273.928 104.472 277.339 106.888 282.255 106.888C289.382 106.888 294.196 102.967 294.196 97.447H294.203Z" fill="black"/>
<path d="M321.903 103.98L340.87 80.6773L323.009 58.8795C321.801 57.3747 320.703 55.3635 320.703 53.1569C320.703 48.8379 323.912 45.5244 328.329 45.5244C331.639 45.5244 333.548 46.8339 335.456 49.3443L350.809 69.8327L366.061 49.7422C368.172 47.0292 370.174 45.5244 373.586 45.5244C376.998 45.5244 380.612 48.2374 380.612 52.6577C380.612 54.8715 379.809 56.6729 378.306 58.5829L360.444 80.482L379.311 103.683C380.518 105.188 381.616 107.199 381.616 109.406C381.616 113.725 378.407 117.038 373.99 117.038C370.68 117.038 368.772 115.729 366.863 113.219L350.404 91.6232L334.148 112.813C332.037 115.526 330.035 117.031 326.623 117.031C323.211 117.031 319.597 114.318 319.597 109.898C319.597 107.684 320.399 105.883 321.903 103.973V103.98Z" fill="black"/>
</svg>
