<svg width="838" height="204" viewBox="0 0 838 204" fill="none" xmlns="http://www.w3.org/2000/svg">
<path d="M158.385 24.7421C158.385 18.1759 163.898 13.8648 172.132 10.7389C173.513 10.2189 174.362 8.55753 173.5 7.10102L172.121 4.21921C175.08 2.92097 178.367 2.19995 181.846 2.19995C194.86 2.19995 205.306 12.3477 205.306 24.7421C205.306 34.2346 195.179 42.5438 181.846 42.5438C168.512 42.5438 158.385 34.2346 158.385 24.7421Z" stroke="white" stroke-width="3"/>
<path d="M39.3266 163.63V165.13H40.8266H116.361C125.868 165.13 133.419 172.681 133.419 182.188C133.419 191.695 125.877 199.245 116.361 199.245H20.4133C9.84079 199.245 1.5 190.904 1.5 180.332V34.0118C1.5 23.4401 9.8399 15.1077 20.4133 15.1077C30.9858 15.1077 39.3266 23.4485 39.3266 34.021V163.63Z" stroke="white" stroke-width="3"/>
<path d="M163.198 77.2177C163.198 66.9116 171.539 58.5708 181.845 58.5708C192.151 58.5708 200.492 66.9116 200.492 77.2177V182.187C200.492 192.493 192.151 200.834 181.845 200.834C171.539 200.834 163.198 192.493 163.198 182.187V77.2177Z" stroke="white" stroke-width="3"/>
<path d="M278.691 79.0826V83.6307L281.397 79.975C290.996 67.0054 304.099 57.5234 324.454 57.5234C356.717 57.5234 387.63 82.786 387.63 129.445V129.978C387.63 153.366 379.993 171.332 368.334 183.443C356.668 195.56 340.895 201.9 324.454 201.9C303.547 201.9 290.679 192.388 281.341 181.234L278.691 178.068V182.196V182.463C278.691 192.49 270.363 200.843 260.044 200.843C249.738 200.843 241.397 192.503 241.397 182.196V25.7985C241.397 15.4924 249.738 7.15161 260.044 7.15161C270.35 7.15161 278.691 15.4924 278.691 25.7985V79.0826ZM350.336 129.969V129.436C350.336 105.131 333.873 88.7079 314.109 88.7079C294.331 88.7079 278.149 105.147 278.149 129.436V129.969C278.149 154.258 294.331 170.697 314.109 170.697C333.867 170.697 350.336 154.538 350.336 129.969Z" stroke="white" stroke-width="3"/>
<path d="M457.626 83.575L460.507 84.1595C463.382 77.3638 467.14 70.9092 471.583 66.1788C476.031 61.4437 481.031 58.5708 486.429 58.5708C492.04 58.5708 496.542 60.4938 499.641 63.6528C502.744 66.8163 504.543 71.3261 504.543 76.6849C504.543 86.4769 498.251 92.319 490.601 94.0456L490.59 94.0481C480.066 96.5061 471.766 101.803 466.126 110.249C460.508 118.661 457.626 130.052 457.626 144.549V182.187C457.626 192.493 449.285 200.834 438.979 200.834C428.673 200.834 420.332 192.493 420.332 182.187V77.2177C420.332 66.9116 428.673 58.5708 438.979 58.5708C449.285 58.5708 457.626 66.9116 457.626 77.2177V83.575Z" stroke="white" stroke-width="3"/>
<path d="M606.016 121.31L608.001 121.989V119.891V117.511C608.001 108.84 605.306 101.883 599.795 97.1229C594.322 92.395 586.296 90.0309 576.019 90.0309C564.735 90.0309 555.572 91.6426 547.746 94.0765L547.731 94.0813L547.716 94.0864C545.453 94.8435 544.025 95.0653 542.358 95.0653C533.876 95.0653 527.156 88.5489 527.156 80.1299C527.156 73.6208 531.249 68.0668 537.049 65.8989L537.051 65.8984C549.587 61.2007 563.186 58.5708 581.852 58.5708C603.608 58.5708 619.069 64.3377 628.766 74.034C638.984 84.2518 643.696 99.4355 643.696 118.302V182.977C643.696 192.99 635.649 200.825 625.582 200.825C614.626 200.825 607.734 193.171 607.734 185.623V185.357V181.457L605.121 184.352C595.592 194.907 582.482 201.882 563.295 201.882C550.182 201.882 538.352 198.117 529.828 191.03C521.336 183.971 516.021 173.531 516.021 159.909V159.385C516.021 144.308 521.729 133.444 531.416 126.298C541.17 119.102 555.125 115.557 571.774 115.557C585.892 115.557 596.062 117.908 606.016 121.31ZM608.534 143.483V142.523L607.662 142.121C600.565 138.847 591.337 136.682 581.32 136.682C572.539 136.682 565.241 138.433 560.095 141.983C554.876 145.582 551.992 150.952 551.992 157.796V158.329C551.992 164.227 554.461 168.979 558.714 172.215C562.924 175.419 568.775 177.064 575.495 177.064C585.171 177.064 593.409 174.407 599.262 169.747C605.139 165.068 608.543 158.414 608.543 150.649V150.027L608.534 150.017V143.483Z" stroke="white" stroke-width="3"/>
<path d="M681.324 168.879L681.371 168.822L731.467 107.324L732.242 106.374L731.464 105.426L684.286 47.9139C681.206 44.0574 678.52 39.0867 678.52 33.7453C678.52 23.1596 686.341 15.0984 697.167 15.0984C701.33 15.0984 704.51 15.9146 707.228 17.455C709.964 19.0057 712.337 21.3503 714.794 24.5802C714.795 24.5816 714.796 24.583 714.797 24.5844L755.342 78.6505L756.534 80.24L757.736 78.6583L798.02 25.6631C798.021 25.661 798.023 25.6588 798.025 25.6566C800.757 22.1457 803.339 19.5282 806.256 17.7773C809.146 16.0429 812.452 15.1076 816.716 15.1076C825.013 15.1076 833.774 21.7013 833.774 32.4316C833.774 37.8284 831.836 42.2758 828.004 47.1283C828.002 47.1314 827.999 47.1346 827.997 47.1377L780.828 104.905L780.054 105.852L780.826 106.8L830.648 168.021C830.649 168.022 830.65 168.024 830.652 168.025C833.732 171.882 836.42 176.854 836.42 182.197C836.42 192.782 828.599 200.844 817.773 200.844C813.61 200.844 810.43 200.027 807.712 198.487C804.975 196.936 802.6 194.59 800.143 191.358L800.141 191.356L756.669 134.369L755.48 132.811L754.287 134.366L711.353 190.288C711.352 190.289 711.351 190.29 711.35 190.292C708.617 193.804 706.035 196.422 703.116 198.174C700.227 199.908 696.921 200.844 692.656 200.844C684.359 200.844 675.599 194.25 675.599 183.52C675.599 178.144 677.521 173.71 681.323 168.88L681.324 168.879Z" stroke="white" stroke-width="3"/>
</svg>
