<svg width="194" height="172" viewBox="0 0 194 172" fill="none" xmlns="http://www.w3.org/2000/svg">
<path d="M96.6396 148.239C132.58 148.239 161.715 124.31 161.715 94.7916C161.715 65.2731 132.58 41.3438 96.6396 41.3438C60.6996 41.3438 31.5645 65.2731 31.5645 94.7916C31.5645 124.31 60.6996 148.239 96.6396 148.239Z" stroke="#111111" stroke-width="6.38899" stroke-miterlimit="10"/>
<path d="M74.4933 95.0228C74.609 85.0895 69.8158 76.9775 63.7795 76.9023C57.7432 76.8329 52.7534 84.8235 52.6378 94.7626C52.5222 104.696 57.3153 112.808 63.3516 112.883C69.3879 112.952 74.3777 104.962 74.4933 95.0228Z" fill="#111111"/>
<path d="M141.982 95.0228C142.097 85.0895 137.304 76.9775 131.268 76.9023C125.231 76.8329 120.242 84.8235 120.126 94.7626C120.01 104.696 124.804 112.808 130.84 112.883C136.876 112.952 141.866 104.962 141.982 95.0228Z" fill="#111111"/>
<path d="M189.473 71.7912L181.077 66.946C169.941 28.4039 136.314 0.31543 96.6732 0.31543C83.6929 0.31543 71.1924 3.25841 59.513 9.05765C57.4489 10.081 55.8878 11.937 55.2286 14.1399C54.5695 16.337 54.8586 18.7365 56.015 20.7197L58.4087 24.8191C58.5648 25.0851 58.5301 25.3279 58.4781 25.4898C58.4318 25.6343 58.2988 25.8945 57.9635 26.0333C43.3584 32.2083 30.9967 41.7485 22.2198 53.6187C19.1554 57.7701 16.5883 62.147 14.5184 66.6858L3.70042 72.9302C1.4108 74.2543 0 76.7 0 79.3423V110.223C0 112.872 1.4108 115.311 3.70042 116.636L14.5357 122.892C27.4987 151.188 59.4321 171.251 96.679 171.251C133.926 171.251 166.235 150.945 179.048 122.383L189.478 116.358C191.768 115.034 193.179 112.588 193.179 109.946V78.1975C193.179 75.5494 191.768 73.1094 189.478 71.7854L189.473 71.7912ZM96.6732 164.868C51.4935 164.868 14.738 133.432 14.738 94.7915C14.738 67.9289 32.2514 43.8357 60.4497 31.925C62.3866 31.104 63.8783 29.4966 64.5375 27.5135C65.1908 25.5476 64.9653 23.391 63.9246 21.6044L61.5309 17.505C61.1609 16.8748 61.2592 16.2792 61.3517 15.9786C61.4442 15.6721 61.6928 15.1171 62.3577 14.7875C73.1467 9.42769 84.6932 6.7102 96.679 6.7102C141.859 6.7102 178.614 46.2237 178.614 94.7973C178.614 133.438 141.859 164.874 96.679 164.874L96.6732 164.868Z" fill="#111111"/>
</svg>
