<svg width="549" height="626" viewBox="0 0 549 626" fill="none" xmlns="http://www.w3.org/2000/svg">
<g filter="url(#filter0_f_761_2621)">
<path d="M362.91 515.04L343.881 534.521L387.389 556.984L362.91 515.04Z" fill="#28BBC5"/>
</g>
<g filter="url(#filter1_f_761_2621)">
<path d="M417.515 509.018L398.486 528.499L441.995 550.962L417.515 509.018Z" fill="#28BBC5"/>
</g>
<g filter="url(#filter2_d_761_2621)">
<path d="M294.861 493.242L330.486 523.012C335.779 528.193 343.664 529.675 350.48 526.768L357.135 523.821C362.535 521.52 364.704 514.991 361.756 509.914L346.752 484.142C346.368 483.495 345.681 483.13 344.933 483.17L296.117 489.886C294.419 489.986 293.649 492.068 294.881 493.242L294.861 493.242Z" fill="#DDDDDD"/>
<path d="M343.24 533.979C337.154 533.974 331.211 531.665 326.645 527.294L291.182 497.645C291.061 497.543 290.96 497.442 290.859 497.341C288.697 495.216 287.971 492.021 289.025 489.171C290.038 486.422 292.567 484.483 295.479 484.181L344.153 477.486C344.294 477.486 344.436 477.445 344.577 477.445C347.509 477.266 350.238 478.724 351.712 481.252L366.716 507.024C368.957 510.867 369.439 515.498 368.04 519.703C366.642 523.927 363.485 527.342 359.399 529.078L352.826 532.005C349.731 533.337 346.475 533.961 343.26 533.959L343.24 533.979ZM305.197 494.42L334.153 518.625C334.274 518.726 334.375 518.828 334.476 518.929C338.133 522.49 343.531 523.505 348.224 521.507L354.797 518.58C356.335 517.914 356.922 516.742 357.125 516.095C357.348 515.448 357.571 514.154 356.783 512.779L343.052 489.192L305.176 494.4L305.197 494.42Z" fill="black"/>
<path d="M241.587 408.49C241.587 408.49 231.108 441.137 232.988 468.131C233.368 473.652 237.53 478.164 242.988 479.017L251.662 480.379C258.677 481.476 265.071 476.183 265.319 469.086L266.87 423.836L241.566 408.49L241.587 408.49Z" fill="#DDDDDD"/>
<path d="M253.466 486.238C252.577 486.238 251.667 486.176 250.777 486.034L242.104 484.673C233.956 483.393 227.855 476.756 227.275 468.526C225.335 440.743 235.692 408.096 236.118 406.721C236.645 405.043 237.92 403.71 239.578 403.104C241.217 402.499 243.057 402.662 244.552 403.573L269.856 418.919C271.634 419.992 272.684 421.954 272.601 424.017L271.05 469.267C270.885 474.282 268.556 479.011 264.691 482.203C261.515 484.829 257.551 486.242 253.487 486.238L253.466 486.238ZM245.027 417.283C242.168 428.098 237.42 449.467 238.7 467.726C238.9 470.597 241.021 472.904 243.852 473.331L252.525 474.692C254.284 474.977 255.983 474.493 257.358 473.361C258.714 472.23 259.504 470.633 259.566 468.874L261.013 426.98L245.007 417.283L245.027 417.283Z" fill="black"/>
<path d="M242.289 410.403C242.289 410.403 262.855 460.746 296.797 495.186C306.213 504.737 320.263 508.124 333.004 503.908L358.103 495.617C358.103 495.617 370.244 510.569 384.553 519.395C390.192 522.877 397.187 523.368 403.336 520.886L415.451 516.285C423.177 513.157 425.67 505.455 421.895 498.031C412.87 480.373 388.732 448.205 369.619 428.9L398.701 448.233C406.36 453.334 416.653 451.664 422.34 444.429L430.214 434.386C435.496 427.637 435.18 418.093 429.442 411.719C417.139 398.041 392.829 379.764 372.615 371.56C372.615 371.56 325.179 399.123 242.269 410.403L242.289 410.403Z" fill="white"/>
<g opacity="0.86">
<path d="M316.303 444.426C317.316 443.459 317.286 441.996 316.785 440.892C315.484 438.02 316.051 434.524 318.445 432.226C320.838 429.928 324.344 429.512 327.148 430.938C328.251 431.5 329.739 431.537 330.742 430.573L334.133 427.318C334.487 426.978 334.654 426.486 334.579 426C334.393 424.791 332.921 424.294 332.04 425.144L329.8 427.305C329.183 427.899 328.198 428.026 327.272 427.698C323.609 426.402 319.371 427.169 316.376 430.045C313.378 432.922 312.432 437.14 313.569 440.866C313.856 441.804 313.689 442.778 313.072 443.371L310.83 445.524C309.956 446.364 310.385 447.841 311.574 448.081C312.058 448.179 312.559 448.032 312.915 447.69L315.95 444.763L315.952 444.761L316.303 444.426Z" fill="#858585" stroke="#858585" stroke-width="1.17522"/>
<path d="M333.877 436.516L334.285 436.938L333.877 436.516C333.397 436.98 333.289 437.668 333.493 438.246C334.464 441.001 333.825 444.183 331.606 446.341C331.598 446.348 331.589 446.355 331.582 446.363C329.345 448.521 326.137 449.043 323.422 447.959L323.204 448.505L323.422 447.959C322.855 447.732 322.165 447.813 321.685 448.276L322.093 448.699L321.685 448.276C320.967 448.969 321.054 450.253 322.081 450.693C325.917 452.336 330.524 451.642 333.717 448.561C336.904 445.486 337.775 440.91 336.299 437.009C335.899 435.953 334.603 435.815 333.877 436.516Z" fill="#858585" stroke="#858585" stroke-width="1.17522"/>
<path d="M335.978 432.046C336.329 431.707 336.495 431.22 336.424 430.738C336.245 429.522 334.765 429.018 333.881 429.871L315.381 447.716C314.495 448.571 314.949 450.07 316.16 450.29C316.638 450.377 317.129 450.228 317.479 449.891L335.978 432.046Z" fill="#858585" stroke="#858585" stroke-width="1.17522"/>
</g>
<path d="M259.43 443.302C271.587 463.753 292.249 493.088 316.301 504.975C317.272 505.441 318.363 505.543 319.415 505.281L345.362 498.81C349.488 497.782 350.098 492.162 346.278 490.298C331.038 482.846 302.258 466.79 266.269 437.464C262.308 434.246 256.845 438.912 259.45 443.302L259.43 443.302Z" fill="#EAEAEA"/>
<path d="M395.464 528.162C390.632 528.158 385.8 526.84 381.617 524.269C370.501 517.426 360.803 507.288 356.318 502.27L334.86 509.371C319.934 514.314 303.801 510.419 292.77 499.229C258.423 464.385 237.898 414.689 237.03 412.585C236.364 410.947 236.487 409.087 237.377 407.551C238.268 406.015 239.806 404.985 241.565 404.744C322.21 393.786 369.342 366.889 369.808 366.626C371.345 365.738 373.205 365.618 374.843 366.266C396.835 375.18 421.61 394.367 433.772 407.904C441.368 416.361 441.803 428.999 434.78 437.931L426.907 447.974C420.491 456.158 409.449 458.96 400.069 455.333C411.442 469.941 421.722 485.012 427.032 495.43C429.677 500.608 430.138 506.169 428.294 511.061C426.531 515.791 422.747 519.528 417.63 521.607L405.414 526.248C402.218 527.54 398.821 528.184 395.424 528.182L395.464 528.162ZM358.168 489.897C359.866 489.899 361.503 490.648 362.615 492.004C362.736 492.145 374.351 506.328 387.629 514.507C391.651 516.997 396.746 517.385 401.277 515.549L413.493 510.908C415.496 510.1 416.952 508.747 417.601 507.029C418.29 505.189 418.029 502.904 416.858 500.618C407.873 483.041 383.937 451.398 365.612 432.904C363.551 430.819 363.392 427.503 365.254 425.22C367.116 422.957 370.412 422.454 372.857 424.093L401.939 443.425C407.072 446.847 414.089 445.72 417.894 440.85L425.767 430.806C429.35 426.239 429.132 419.809 425.253 415.5C414.263 403.278 392.136 386.277 373.014 377.871C362.374 383.545 319.573 404.52 250.656 414.941C257.459 429.646 275.447 465.247 300.945 491.107C308.885 499.161 320.509 501.96 331.269 498.41L356.368 490.118C356.955 489.917 357.561 489.836 358.168 489.837L358.168 489.897Z" fill="black"/>
<path d="M238.12 415.465C236.184 409.843 239.868 403.84 245.773 403.076C276.348 399.116 332.284 388.867 368.818 366.957C372.439 364.776 377.19 365.69 379.553 369.108C383.067 374.166 381.465 380.757 375.983 383.806C355.006 395.456 305.855 417.256 247.801 421.781C243.514 422.122 239.553 419.53 238.141 415.465L238.12 415.465Z" fill="white"/>
<path d="M247.049 427.639C240.579 427.634 234.759 423.545 232.62 417.356C231.107 413.008 231.637 408.256 234.066 404.336C236.495 400.415 240.501 397.85 245.051 397.247C268.771 394.171 328.022 384.592 365.83 361.914C372.121 358.138 380.269 359.823 384.389 365.73C387.015 369.513 387.921 374.003 386.887 378.389C385.872 382.776 382.937 386.616 378.831 388.877C368.859 394.41 315.7 422.313 248.263 427.579C247.858 427.619 247.454 427.619 247.049 427.619L247.049 427.639ZM373.082 371.625C372.657 371.625 372.232 371.726 371.848 371.968C332.159 395.797 271.006 405.719 246.538 408.874C245.102 409.055 244.333 409.985 244.009 410.51C243.685 411.056 243.199 412.147 243.663 413.543C244.188 415.08 245.704 416.032 247.341 415.932C312.372 410.846 363.549 383.993 373.137 378.662C374.351 377.975 375.18 376.945 375.464 375.752C375.647 374.964 375.668 373.751 374.759 372.415C374.396 371.889 373.749 371.606 373.082 371.605L373.082 371.625Z" fill="black"/>
<path d="M166.207 114.432C170.246 120.501 168.966 128.649 163.22 133.154C141.167 150.485 92.7443 198.43 101.881 280.408C101.881 280.408 114.912 426.87 269.128 401.087C269.128 401.087 439.899 381.988 436.334 258.503C436.334 258.503 447.499 69.2341 236.722 76.3114C236.722 76.3114 192.742 78.9063 169.578 95.4081C163.488 99.7305 162.086 108.202 166.227 114.432L166.207 114.432Z" fill="white"/>
<path d="M162.556 139.785C162.556 139.785 90.0087 190.44 110.333 291.717C110.333 291.717 129.178 397.44 233.507 402.959C233.507 402.959 143.656 369.588 162.576 139.785L162.556 139.785Z" fill="#E0E0E0"/>
<path d="M278.664 405.723C273.912 406.507 270.858 406.889 270.009 406.99C221.253 415.121 181.082 407.286 150.609 383.726C102.332 346.384 96.2132 283.597 95.9928 280.927C86.494 195.855 137.304 145.951 159.6 128.438C162.877 125.893 163.609 121.162 161.306 117.703C155.308 108.68 157.44 96.7317 166.16 90.5309C190.437 73.2615 234.538 70.4645 236.399 70.3244C304.359 68.0512 356.857 85.5006 392.618 122.166C445.431 176.355 442.663 252.521 442.335 258.547C443.77 311.463 414.156 353.962 356.691 381.438C325.035 396.578 293.528 403.206 278.644 405.682L278.664 405.723ZM171.219 111.118C176.935 119.737 175.066 131.463 166.953 137.846C146.235 154.127 99.0065 200.475 107.863 279.764C107.923 280.512 113.842 340.306 157.996 374.35C185.762 395.784 222.839 402.788 268.198 395.2L268.502 395.14C268.926 395.079 310.927 390.178 351.786 370.576C405.347 344.857 431.803 307.208 430.385 258.639C430.385 258.477 430.385 258.295 430.385 258.113C430.426 257.344 434.144 181.806 383.957 130.409C350.641 96.273 301.196 80.0795 236.915 82.2343C236.632 82.2341 194.512 84.9315 173.047 100.242C169.649 102.665 168.816 107.518 171.199 111.098L171.219 111.098L171.219 111.118Z" fill="black"/>
<path d="M290.555 365.074C366.495 345.802 416.304 283.887 401.809 226.755C387.315 169.623 314.001 138.934 238.061 158.186C162.121 177.458 112.313 239.393 126.807 296.525C141.302 353.657 214.615 384.346 290.555 365.074Z" fill="#101F49"/>
<path d="M292.094 371.008C213.019 391.086 136.229 358.312 120.929 297.985C105.608 237.678 157.522 172.246 236.576 152.208C315.651 132.13 392.441 164.904 407.741 225.231C423.062 285.538 371.169 350.95 292.094 371.008ZM239.6 164.12C167.058 182.525 119.112 241.247 132.76 295.001C146.387 348.756 216.528 377.501 289.07 359.117C361.612 340.712 409.558 281.99 395.91 228.235C382.283 174.48 312.142 145.735 239.6 164.12Z" fill="black"/>
<path d="M208.544 259.158C206.263 241.85 195.594 228.928 184.681 230.326C173.769 231.724 166.768 246.885 169.029 264.195C171.309 281.503 181.978 294.426 192.891 293.027C203.803 291.629 210.805 276.468 208.524 259.16L208.544 259.158Z" fill="white"/>
<path d="M329.341 232.489C326.165 215.271 314.873 202.868 304.118 204.794C293.364 206.719 287.237 222.228 290.413 239.446C293.589 256.665 304.882 269.068 315.636 267.142C326.391 265.216 332.517 249.708 329.341 232.489Z" fill="white"/>
<path d="M418.465 164.694L446.497 181.114C451.691 184.151 455.57 188.966 457.426 194.67C460.351 203.629 464.423 219.707 467.395 245.449C468.219 252.527 465.848 259.642 460.991 264.896L433.753 294.173C433.753 294.173 456.143 258.604 418.485 164.694L418.465 164.694Z" fill="black"/>
<path d="M95.342 245.708L84.7737 263.473C81.9393 268.222 80.7623 273.741 81.3849 279.242C82.9917 293.336 88.0651 321.971 103.655 347.966C106.947 353.448 112.261 357.435 118.427 359.158L136.035 364.085C136.035 364.085 91.6418 324.946 95.342 245.708Z" fill="black"/>
<path d="M383.047 444.525C381.854 444.524 380.661 444.159 379.631 443.39L356.998 426.489C354.471 424.586 353.949 421.007 355.831 418.461C357.713 415.915 361.313 415.412 363.859 417.294L386.492 434.195C389.018 436.098 389.541 439.677 387.659 442.223C386.525 443.739 384.806 444.526 383.067 444.525L383.047 444.525Z" fill="black"/>
</g>
<defs>
<filter id="filter0_f_761_2621" x="330.297" y="501.456" width="70.6761" height="69.1121" filterUnits="userSpaceOnUse" color-interpolation-filters="sRGB">
<feFlood flood-opacity="0" result="BackgroundImageFix"/>
<feBlend mode="normal" in="SourceGraphic" in2="BackgroundImageFix" result="shape"/>
<feGaussianBlur stdDeviation="6.79207" result="effect1_foregroundBlur_761_2621"/>
</filter>
<filter id="filter1_f_761_2621" x="384.902" y="495.434" width="70.6761" height="69.1121" filterUnits="userSpaceOnUse" color-interpolation-filters="sRGB">
<feFlood flood-opacity="0" result="BackgroundImageFix"/>
<feBlend mode="normal" in="SourceGraphic" in2="BackgroundImageFix" result="shape"/>
<feGaussianBlur stdDeviation="6.79207" result="effect1_foregroundBlur_761_2621"/>
</filter>
<filter id="filter2_d_761_2621" x="0.640465" y="0.289787" width="547.498" height="625.016" filterUnits="userSpaceOnUse" color-interpolation-filters="sRGB">
<feFlood flood-opacity="0" result="BackgroundImageFix"/>
<feColorMatrix in="SourceAlpha" type="matrix" values="0 0 0 0 0 0 0 0 0 0 0 0 0 0 0 0 0 0 127 0" result="hardAlpha"/>
<feOffset dy="10.7443"/>
<feGaussianBlur stdDeviation="40.2911"/>
<feComposite in2="hardAlpha" operator="out"/>
<feColorMatrix type="matrix" values="0 0 0 0 1 0 0 0 0 1 0 0 0 0 1 0 0 0 0.7 0"/>
<feBlend mode="normal" in2="BackgroundImageFix" result="effect1_dropShadow_761_2621"/>
<feBlend mode="normal" in="SourceGraphic" in2="effect1_dropShadow_761_2621" result="shape"/>
</filter>
</defs>
</svg>
