<svg width="491" height="434" viewBox="0 0 491 434" fill="none" xmlns="http://www.w3.org/2000/svg">
<path d="M451.316 311.852L481.548 294.396C487.357 291.037 490.936 284.832 490.936 278.129V197.584C490.936 190.866 487.357 184.676 481.548 181.317L451.316 163.861V311.837V311.852Z" fill="black"/>
<path d="M40.4692 166.781L10.2374 184.236C4.42871 187.595 0.849609 193.8 0.849609 200.504V278.848C0.849609 285.566 4.42871 291.756 10.2374 295.115L40.4692 312.571V166.795V166.781Z" fill="black"/>
<path d="M149.957 47.6727C146.157 41.1599 148.68 32.7841 155.443 29.425C183.019 15.7247 213.735 8.08252 246.109 8.08252C365.393 8.08252 462.072 111.759 462.072 239.654C462.072 342.318 365.378 425.547 246.109 425.547C126.839 425.547 30.1445 342.318 30.1445 239.654C30.1445 166.355 79.4453 102.958 151.057 72.697C156.792 70.2767 159.168 63.4413 156.029 58.0579L149.957 47.658V47.6727Z" fill="#F3F3F3"/>
<path d="M246.019 375.264C337.198 375.264 411.113 314.555 411.113 239.668C411.113 164.781 337.198 104.073 246.019 104.073C154.841 104.073 80.9258 164.781 80.9258 239.668C80.9258 314.555 154.841 375.264 246.019 375.264Z" fill="#0B1F4C" stroke="black" stroke-width="16.2087" stroke-miterlimit="10"/>
<path d="M189.837 240.24C190.13 215.04 177.97 194.46 162.656 194.269C147.342 194.093 134.683 214.365 134.39 239.58C134.097 264.781 146.257 285.361 161.571 285.551C176.885 285.727 189.543 265.455 189.837 240.24Z" fill="white"/>
<path d="M361.05 240.24C361.343 215.04 349.183 194.46 333.869 194.269C318.555 194.093 305.896 214.365 305.603 239.58C305.309 264.781 317.47 285.361 332.784 285.551C348.097 285.727 360.756 265.455 361.05 240.24Z" fill="white"/>
<path d="M246.105 433.659C122.552 433.659 22.0293 346.631 22.0293 239.668C22.0293 202.498 34.2041 166.384 57.219 135.229C79.4857 105.1 110.832 80.8966 147.899 65.2453C148.75 64.8786 149.088 64.2186 149.205 63.8666C149.337 63.4559 149.425 62.8398 149.029 62.165L142.956 51.7651C140.023 46.7338 139.289 40.6464 140.961 35.0724C142.634 29.4837 146.594 24.775 151.831 22.1787C181.461 7.46625 213.189 0 246.105 0C369.658 0 470.181 107.52 470.181 239.683C470.181 346.645 369.658 433.674 246.105 433.674V433.659ZM156.95 43.58L163.023 53.9799C165.678 58.5271 166.235 63.9839 164.578 68.9712C162.905 74.0025 159.121 78.095 154.207 80.1633C82.6835 110.395 38.2379 171.504 38.2379 239.654C38.2379 337.683 131.485 417.435 246.105 417.435C360.724 417.435 453.972 337.683 453.972 239.654C453.972 116.424 360.724 16.1794 246.105 16.1794C215.697 16.1794 186.404 23.0735 159.033 36.6712C157.346 37.5073 156.715 38.9154 156.481 39.6928C156.246 40.4556 156.011 41.9664 156.935 43.5653L156.95 43.58Z" fill="black"/>
</svg>
